<svg width="80" height="80" viewBox="0 0 80 80" version="1.1" xmlns="http://www.w3.org/2000/svg" xmlns:xlink="http://www.w3.org/1999/xlink" xmlns:figma="http://www.figma.com/figma/ns">
<title>dribbble-logo</title>
<desc>Created using Figma</desc>
<g id="Canvas" transform="translate(40 -224)" figma:type="canvas">
<g id="dribbble-logo" style="mix-blend-mode:normal;" figma:type="frame">
<g id="Group" style="mix-blend-mode:normal;" figma:type="frame">
<g id="Dribbble" style="mix-blend-mode:normal;" figma:type="vector">
<use xlink:href="#path0_fill" transform="translate(-40 224)" fill="#FFFFFF" style="mix-blend-mode:normal;"/>
</g>
</g>
</g>
</g>
<defs>
<path id="path0_fill" d="M 39.9984 0C 17.9066 0.00167396 0 17.9094 0 40.0018C 0 62.0903 17.9066 80 39.9984 80C 62.0903 80 79.9976 62.0903 80 40.0018C 79.9976 17.9094 62.0903 0.00167396 39.9984 0ZM 64.5069 20.7397C 68.4097 25.6955 70.8533 31.8321 71.1615 38.5335C 66.6459 37.5751 62.3793 37.1086 58.4018 37.1086L 58.4018 37.1077L 58.3724 37.1077C 55.1701 37.1077 52.1648 37.3984 49.3323 37.9008C 48.6439 36.2136 47.946 34.593 47.243 33.0409C 53.5512 30.274 59.6061 26.3342 64.5069 20.7397ZM 39.9984 8.79389C 47.3594 8.79389 54.1122 11.3673 59.4584 15.6516C 55.3673 20.5496 49.9672 24.0969 44.1337 26.6017C 40.0347 18.6755 36.0739 13.0052 33.3664 9.53861C 35.5096 9.06302 37.7218 8.79389 39.9984 8.79389ZM 26.2144 12.047C 28.3806 14.6055 32.7174 20.2332 37.3495 29.0196C 27.929 31.8239 18.4428 32.4827 12.7031 32.481C 12.5395 32.481 12.3777 32.481 12.2188 32.4793L 12.2136 32.4793C 11.247 32.4793 10.4158 32.4641 9.72182 32.4429C 11.961 23.4827 18.0994 16.062 26.2144 12.047ZM 8.79128 40.0018C 8.79128 39.855 8.79649 39.7058 8.80523 39.5522C 9.69634 39.5851 10.8391 39.6134 12.2145 39.6134L 12.2223 39.6134C 18.4954 39.5725 29.4482 39.0484 40.548 35.544C 41.1531 36.867 41.752 38.2445 42.344 39.6746C 34.9315 42.1537 29.0935 46.1034 24.7754 50.0366C 20.6184 53.8229 17.8099 57.5732 16.1688 60.0767C 11.5768 54.6398 8.7937 47.6529 8.79128 40.0018ZM 39.9984 71.2102C 33.0535 71.2102 26.6525 68.9133 21.4596 65.0593C 22.5633 63.2416 24.9298 59.7519 28.6981 56.146C 32.5751 52.4308 37.9272 48.6061 44.915 46.3301C 47.2902 52.9882 49.4394 60.5993 51.0765 69.1669C 47.6276 70.4802 43.901 71.2102 39.9984 71.2102ZM 57.6608 65.6686C 56.0774 57.9202 54.0869 50.9333 51.9012 44.698C 53.928 44.4073 56.0556 44.2432 58.3013 44.2432L 58.3821 44.2432L 58.3873 44.2432L 58.3925 44.2432C 62.1146 44.2432 66.2049 44.7058 70.6407 45.7137C 69.1051 53.9654 64.3256 61.0721 57.6608 65.6686Z"/>
</defs>
</svg>
