<svg width="80" height="81" viewBox="0 0 80 81" version="1.1" xmlns="http://www.w3.org/2000/svg" xmlns:xlink="http://www.w3.org/1999/xlink" xmlns:figma="http://www.figma.com/figma/ns">
<title>flickr-website-logo-silhouette</title>
<desc>Created using Figma</desc>
<g id="Canvas" transform="translate(-360 -224)" figma:type="canvas">
<g id="flickr-website-logo-silhouette" style="mix-blend-mode:normal;" figma:type="frame">
<g id="Group" style="mix-blend-mode:normal;" figma:type="frame">
<g id="Vector" style="mix-blend-mode:normal;" figma:type="vector">
<use xlink:href="#path0_fill" transform="translate(360 224)" fill="#FFFFFF" style="mix-blend-mode:normal;"/>
</g>
</g>
</g>
</g>
<defs>
<path id="path0_fill" d="M 75.5993 4.4007C 72.6664 1.46708 69.1328 0 65.0012 0L 15.0001 0C 10.8685 0 7.33487 1.46708 4.4007 4.4007C 1.46708 7.33487 4.75717e-12 10.8683 4.75717e-12 15.0001L 4.75717e-12 65.0006C 4.75717e-12 69.132 1.46708 72.6659 4.4007 75.6C 7.33487 78.5342 10.8685 80.0013 15.0001 80.0013L 65.0006 80.0013C 69.1322 80.0013 72.6659 78.5342 75.5988 75.6C 78.5329 72.6659 80 69.1322 80 65.0006L 80 15.0001C 79.9998 10.8683 78.5327 7.33487 75.5993 4.4007ZM 33.1256 47.813C 30.9724 49.9664 28.3688 51.0431 25.3127 51.0431C 22.2571 51.0431 19.6531 49.9664 17.5003 47.813C 15.3478 45.6604 14.2711 43.0566 14.2711 40.0004C 14.2711 36.9438 15.3471 34.3402 17.5003 32.1875C 19.6526 30.0347 22.2571 28.958 25.3127 28.958C 28.3686 28.958 30.9722 30.0347 33.1256 32.1875C 35.2779 34.34 36.3544 36.9438 36.3544 40.0004C 36.3544 43.0553 35.2779 45.6604 33.1256 47.813ZM 62.4997 47.813C 60.3483 49.9664 57.7438 51.0431 54.6873 51.0431C 51.632 51.0431 49.0276 49.9664 46.8737 47.813C 44.7223 45.6604 43.6449 43.0566 43.6449 40.0004C 43.6449 36.9438 44.7223 34.3402 46.8737 32.1875C 49.0276 30.0347 51.6314 28.958 54.6873 28.958C 57.7426 28.958 60.3471 30.0347 62.4997 32.1875C 64.6524 34.34 65.7298 36.9438 65.7298 40.0004C 65.7298 43.0553 64.6522 45.6604 62.4997 47.813Z"/>
</defs>
</svg>
