<?xml version="1.0" encoding="utf-8"?>
<!-- Generator: Adobe Illustrator 17.1.0, SVG Export Plug-In . SVG Version: 6.00 Build 0)  -->
<!DOCTYPE svg PUBLIC "-//W3C//DTD SVG 1.1//EN" "http://www.w3.org/Graphics/SVG/1.1/DTD/svg11.dtd">

<svg version="1.1" id="Layer_1" xmlns="http://www.w3.org/2000/svg" xmlns:xlink="http://www.w3.org/1999/xlink" x="0px" y="0px" viewBox="0 0 213 213" enable-background="new 0 0 213 213" xml:space="preserve"><g><path fill="#FFFFFF" d="M106.5,0C47.7,0,0,47.7,0,106.5C0,165.3,47.7,213,106.5,213c58.8,0,106.5-47.7,106.5-106.5 C213,47.7,165.3,0,106.5,0z M99.2,62.9v90.8c0,10.1-6.4,18.1-11,21.7c-2.5,2-7.5,5.5-7.5,5.5c-1.5,0.7-2.9-1-1.9-2.3l4.1-5.5 c4.4-6.3,6.4-12.4,6.4-19.5v-15.5c0-0.1-0.2-0.2-0.3-0.1l-11.9,5.4c-7.4,3-15.6,4.1-22.6,0.4c-7.4-3.9-12.1-11.3-12.1-19.6V95.1 c0-7.9,2.6-18.7,14.6-23.9c9.1-4,30.8-12.4,39.1-15.6c1.6-0.6,3.3,0.6,3.3,2.3V62.9z M168.2,117.9c0,7.9-2.3,18.7-14.3,23.9 c-9.1,4-30.9,12.4-39.3,15.6c-1.6,0.6-3.4-0.6-3.4-2.3v-5V59.3c0-10.1,6.7-18.1,11.4-21.7c2.5-2,7.7-5.5,7.7-5.5c1.5-0.7,3,1,2,2.3 l-3.8,5.5c-4.4,6.3-6.2,12.4-6.2,19.5v15.5c0,0.1,0.1,0.2,0.2,0.1l11.8-5.4c7.4-3,15.2-4.1,22.3-0.4c7.4,3.9,11.7,11.3,11.7,19.6 V117.9z"/><path fill="#FFFFFF" d="M151.6,78.5c-3.6-1.8-9.1-0.5-13,1.1c0,0-10.8,3.4-14.7,8.9c-2.2,3-1.7,11.5-1.7,14.4v36.7 c0,1.3,1.3,2.1,2.4,1.4c0,0,18-6.6,24.7-9.9c6.9-3.5,9-9.1,9-13.3V89.3C158.2,84.8,155.6,80.5,151.6,78.5z"/><path fill="#FFFFFF" d="M89.2,73.4c0-1.3-1.5-2.1-2.6-1.4c0,0-18,6.6-24.6,9.9c-6.9,3.5-8.9,9.1-8.9,13.3v28.5 c0,4.5,2.4,8.8,6.4,10.8c3.6,1.8,9,0.5,12.9-1.1c0,0,10.9-3.4,14.9-8.9c2.2-3,1.8-11.5,1.8-14.4V73.4z"/></g></svg>
