<svg width="300" height="300" viewBox="0 0 300 300" version="1.1" xmlns="http://www.w3.org/2000/svg" xmlns:xlink="http://www.w3.org/1999/xlink" xmlns:figma="http://www.figma.com/figma/ns">
<title>logo_gray_transparent</title>
<desc>Created using Figma</desc>
<g id="Canvas" transform="translate(150 382)" figma:type="canvas">
<g id="logo_gray_transparent" style="mix-blend-mode:normal;" figma:type="frame">
<g id="Group" style="mix-blend-mode:normal;" figma:type="frame">
<g id="Vector" style="mix-blend-mode:normal;" figma:type="vector">
<use xlink:href="#path0_fill" transform="translate(-150 -382)" fill="#FFFFFF" style="mix-blend-mode:normal;"/>
</g>
<g id="Vector" style="mix-blend-mode:normal;" figma:type="vector">
<use xlink:href="#path1_fill" transform="translate(22.0439 -272.663)" fill="#FFFFFF" style="mix-blend-mode:normal;"/>
</g>
<g id="Vector" style="mix-blend-mode:normal;" figma:type="vector">
<use xlink:href="#path2_fill" transform="translate(-75.2113 -280.957)" fill="#FFFFFF" style="mix-blend-mode:normal;"/>
</g>
</g>
</g>
</g>
<defs>
<path id="path0_fill" d="M 150 0C 67.1831 0 0 67.1831 0 150C 0 232.817 67.1831 300 150 300C 232.817 300 300 232.817 300 150C 300 67.1831 232.817 0 150 0ZM 139.718 88.5916L 139.718 216.479C 139.718 230.704 130.704 241.972 124.225 247.042C 120.704 249.859 113.662 254.789 113.662 254.789C 111.549 255.775 109.577 253.38 110.986 251.549L 116.761 243.803C 122.958 234.93 125.775 226.338 125.775 216.338L 125.775 194.507C 125.775 194.366 125.493 194.225 125.352 194.366L 108.592 201.972C 98.169 206.197 86.6197 207.746 76.7606 202.535C 66.338 197.042 59.7183 186.62 59.7183 174.93L 59.7183 133.944C 59.7183 122.817 63.3803 107.606 80.2817 100.282C 93.0986 94.6479 123.662 82.8169 135.352 78.3099C 137.606 77.4648 140 79.1549 140 81.5493L 140 88.5916L 139.718 88.5916ZM 236.901 166.056C 236.901 177.183 233.662 192.394 216.761 199.718C 203.944 205.352 173.239 217.183 161.408 221.69C 159.155 222.535 156.62 220.845 156.62 218.451L 156.62 211.408L 156.62 83.5211C 156.62 69.2958 166.056 58.0282 172.676 52.9577C 176.197 50.1408 183.521 45.2113 183.521 45.2113C 185.634 44.2253 187.746 46.6197 186.338 48.4507L 180.986 56.1972C 174.789 65.0704 172.254 73.662 172.254 83.662L 172.254 105.493C 172.254 105.634 172.394 105.775 172.535 105.634L 189.155 98.0282C 199.577 93.8028 210.563 92.2535 220.563 97.4648C 230.986 102.958 237.042 113.38 237.042 125.07L 237.042 166.056L 236.901 166.056Z"/>
<path id="path1_fill" d="M 41.4772 1.22684C 36.4068 -1.30837 28.6603 0.522614 23.1674 2.77613C 23.1674 2.77613 7.9561 7.56487 2.46314 15.3113C -0.635451 19.5367 0.0687677 31.5085 0.0687677 35.593L 0.0687677 87.2832C 0.0687677 89.1142 1.89976 90.2409 3.44905 89.255C 3.44905 89.255 28.8012 79.9592 38.2378 75.3114C 47.9561 70.3818 50.9138 62.4944 50.9138 56.579L 50.9138 16.4381C 50.773 10.1001 47.111 4.04374 41.4772 1.22684Z"/>
<path id="path2_fill" d="M 50.8451 2.33728C 50.8451 0.506296 48.7324 -0.620466 47.1831 0.365449C 47.1831 0.365449 21.831 9.66123 12.5352 14.3091C 2.8169 19.2387 -2.14913e-06 27.126 -2.14913e-06 33.0415L -2.14913e-06 73.1823C -2.14913e-06 79.5204 3.38028 85.5767 9.01408 88.3936C 14.0845 90.9288 21.6901 89.0978 27.1831 86.8443C 27.1831 86.8443 42.5352 82.0556 48.169 74.3091C 51.2676 70.0838 50.7042 58.1119 50.7042 54.0274L 50.7042 2.33728L 50.8451 2.33728Z"/>
</defs>
</svg>
